<svg xmlns="http://www.w3.org/2000/svg" xmlns:xlink="http://www.w3.org/1999/xlink" width="2401" height="2401" viewBox="0 0 2401 2401"><defs><linearGradient id="linear-gradient" x1=".501" x2=".5" y1="1.997" gradientUnits="objectBoundingBox"><stop offset="0" stop-color="#fff"/><stop offset=".586" stop-color="#fff"/><stop offset="1" stop-color="#727272"/><stop offset="1" stop-color="#616161"/></linearGradient><filter id="Dark_Grey" width="1849" height="1285.5" x="294.5" y="540" filterUnits="userSpaceOnUse"><feOffset dy="5" input="SourceAlpha"/><feGaussianBlur result="blur" stdDeviation="1.5"/><feFlood flood-opacity=".349"/><feComposite in2="blur" operator="in"/><feComposite in="SourceGraphic"/></filter><filter id="Mid_Grey" width="1849.5" height="1285.5" x="299" y="540" filterUnits="userSpaceOnUse"><feOffset dx="5" dy="5" input="SourceAlpha"/><feGaussianBlur result="blur-2" stdDeviation="1.5"/><feFlood flood-opacity=".349"/><feComposite in2="blur-2" operator="in"/><feComposite in="SourceGraphic"/></filter><filter id="Dark_Main_Color" width="1849.5" height="1285.5" x="299" y="540" filterUnits="userSpaceOnUse"><feOffset dx="5" dy="5" input="SourceAlpha"/><feGaussianBlur result="blur-3" stdDeviation="1.5"/><feFlood flood-opacity=".349"/><feComposite in2="blur-3" operator="in"/><feComposite in="SourceGraphic"/></filter><filter id="Main_Color" width="1849.5" height="1285.5" x="299" y="540" filterUnits="userSpaceOnUse"><feOffset dx="5" dy="5" input="SourceAlpha"/><feGaussianBlur result="blur-4" stdDeviation="1.5"/><feFlood flood-opacity=".349"/><feComposite in2="blur-4" operator="in"/><feComposite in="SourceGraphic"/></filter><filter id="Text" width="1680.5" height="897.5" x="334.5" y="698" filterUnits="userSpaceOnUse"><feOffset dx="-30" dy="30" input="SourceAlpha"/><feGaussianBlur result="blur-5" stdDeviation="7.5"/><feFlood flood-opacity=".349"/><feComposite in2="blur-5" operator="in"/><feComposite in="SourceGraphic"/></filter><clipPath id="clip-chm-32bit"><rect width="2401" height="2401"/></clipPath></defs><g id="chm-32bit" clip-path="url(#clip-chm-32bit)"><g id="Page" transform="translate(361 31.978)"><rect id="Shadow_Page_Left" width="64" height="2288" fill="#424242" data-name="Shadow Page Left" transform="translate(0 11.022)"/><rect id="Shadow_Page_Right" width="64" height="1826" fill="#424242" data-name="Shadow Page Right" transform="translate(1628 487.022)"/><rect id="Shadow_Page_Bottom" width="64.197" height="1601.308" fill="#424242" data-name="Shadow Page Bottom" transform="translate(1637.951 2266.508) rotate(90)"/><rect id="Shadow_Page_Top" width="64.197" height="1214.308" fill="#424242" data-name="Shadow Page Top" transform="translate(1250.951 8.508) rotate(90)"/><rect id="Shadow_Icon_Right" width="123" height="1293" fill="#616161" data-name="Shadow Icon Right" transform="translate(1677 579.022)"/><rect id="Page_Left" width="1203" height="2272" fill="#fff" data-name="Page Left" transform="translate(48 15.022)"/><rect id="Page_Right" width="426" height="1846" fill="#fff" data-name="Page Right" transform="translate(1251 441.022)"/><g id="Fold" transform="translate(1036.571)"><rect id="Shadow_Left" width="45" height="447" data-name="Shadow Left" transform="translate(185.429 12.022)"/><rect id="Shadow_Bottom" width="441" height="45" data-name="Shadow Bottom" transform="translate(199.429 428.022)"/><rect id="Shadow_Right" width="601.634" height="55.107" fill="#616161" data-name="Shadow Right" transform="translate(230.364) rotate(45)"/><path id="Fold-2" fill="url(#linear-gradient)" d="M302.805,0,605.611,299.4H0Z" data-name="Fold" transform="translate(428.231 654.72) rotate(-135)"/></g></g><g id="Icon" transform="translate(183.745 289.904)"><path id="Shadow" fill="#212121" d="M100,0H1760a80,80,0,0,1,80,80V1266a10,10,0,0,1-10,10H100A100,100,0,0,1,0,1176V100A100,100,0,0,1,100,0Z" transform="translate(79.255 292.096)"/><path id="Black" fill="#212121" d="M100,0H1760a80,80,0,0,1,80,80V1266a10,10,0,0,1-10,10H100A100,100,0,0,1,0,1176V100A100,100,0,0,1,100,0Z" transform="translate(115.255 250.096)"/><g filter="url(#Dark_Grey)" transform="matrix(1, 0, 0, 1, -183.75, -289.9)"><path id="Dark_Grey-2" fill="#424242" d="M100,0H1760a80,80,0,0,1,80,80v966a230,230,0,0,1-230,230H100A100,100,0,0,1,0,1176V100A100,100,0,0,1,100,0Z" data-name="Dark Grey" transform="translate(299 540)"/></g><g filter="url(#Mid_Grey)" transform="matrix(1, 0, 0, 1, -183.75, -289.9)"><path id="Mid_Grey-2" fill="#616161" d="M100,0H1760a80,80,0,0,1,80,80V846a430,430,0,0,1-430,430H100A100,100,0,0,1,0,1176V100A100,100,0,0,1,100,0Z" data-name="Mid Grey" transform="translate(299 540)"/></g><g filter="url(#Dark_Main_Color)" transform="matrix(1, 0, 0, 1, -183.75, -289.9)"><path id="Dark_Main_Color-2" fill="#008e9f" d="M100,0H1760a80,80,0,0,1,80,80V596a680,680,0,0,1-680,680H100A100,100,0,0,1,0,1176V100A100,100,0,0,1,100,0Z" data-name="Dark Main Color" transform="translate(299 540)"/></g><g filter="url(#Main_Color)" transform="matrix(1, 0, 0, 1, -183.75, -289.9)"><path id="Main_Color-2" fill="#00e5ff" d="M100,0H1760a80,80,0,0,1,80,80V276A1000,1000,0,0,1,840,1276H100A100,100,0,0,1,0,1176V100A100,100,0,0,1,100,0Z" data-name="Main Color" transform="translate(299 540)"/></g><g filter="url(#Text)" transform="matrix(1, 0, 0, 1, -183.75, -289.9)"><text id="Text-2" fill="#212121" data-name="Text" font-family="Tahoma-Bold, Tahoma" font-size="700" font-weight="700" transform="translate(387 1398)"><tspan x="0" y="0">CHM</tspan></text></g></g></g></svg>