<svg xmlns="http://www.w3.org/2000/svg" xmlns:xlink="http://www.w3.org/1999/xlink" width="4100" height="4300" viewBox="0 0 4100 4300"><defs><linearGradient id="linear-gradient" x1=".501" x2=".5" y1="1.997" gradientUnits="objectBoundingBox"><stop offset="0" stop-color="#fff"/><stop offset=".586" stop-color="#fff"/><stop offset="1" stop-color="#727272"/><stop offset="1" stop-color="#616161"/></linearGradient><filter id="Dark_Grey" width="1849.5" height="1285.5" x="315" y="380" filterUnits="userSpaceOnUse"><feOffset dx="5" dy="5" input="SourceAlpha"/><feGaussianBlur result="blur" stdDeviation="1.5"/><feFlood flood-opacity=".349"/><feComposite in2="blur" operator="in"/><feComposite in="SourceGraphic"/></filter><filter id="Mid_Grey" width="1849.5" height="1285.5" x="315" y="380" filterUnits="userSpaceOnUse"><feOffset dx="5" dy="5" input="SourceAlpha"/><feGaussianBlur result="blur-2" stdDeviation="1.5"/><feFlood flood-opacity=".349"/><feComposite in2="blur-2" operator="in"/><feComposite in="SourceGraphic"/></filter><filter id="Dark_Main_Color" width="1849.5" height="1285.5" x="315" y="380" filterUnits="userSpaceOnUse"><feOffset dx="5" dy="5" input="SourceAlpha"/><feGaussianBlur result="blur-3" stdDeviation="1.5"/><feFlood flood-opacity=".349"/><feComposite in2="blur-3" operator="in"/><feComposite in="SourceGraphic"/></filter><filter id="Main_Color" width="1849.5" height="1285.5" x="315" y="380" filterUnits="userSpaceOnUse"><feOffset dx="5" dy="5" input="SourceAlpha"/><feGaussianBlur result="blur-4" stdDeviation="1.5"/><feFlood flood-opacity=".349"/><feComposite in2="blur-4" operator="in"/><feComposite in="SourceGraphic"/></filter><filter id="Text" width="1449.5" height="1742.5" x="484.5" y="537" filterUnits="userSpaceOnUse"><feOffset dx="-30" dy="30" input="SourceAlpha"/><feGaussianBlur result="blur-5" stdDeviation="7.5"/><feFlood flood-opacity=".349"/><feComposite in2="blur-5" operator="in"/><feComposite in="SourceGraphic"/></filter><clipPath id="clip-PdfDoc"><rect width="4100" height="4300"/></clipPath></defs><g id="PdfDoc" clip-path="url(#clip-PdfDoc)"><g id="Page" transform="translate(94 93)"><rect id="Shadow_Page_Right" width="113" height="4026" fill="#424242" data-name="Shadow Page Right" transform="translate(505 -7)"/><rect id="Shadow_Page_Left" width="113" height="3276" fill="#424242" data-name="Shadow Page Left" transform="translate(3387 743)"/><rect id="Shadow_Page_Bottom" width="113" height="2882" fill="#616161" data-name="Shadow Page Bottom" transform="translate(3443.5 3956.5) rotate(90)"/><rect id="Shadow_Page_Top" width="113" height="2158" fill="#616161" data-name="Shadow Page Top" transform="translate(2699.5 -34.5) rotate(90)"/><rect id="Page_Left" width="2117" height="4000" fill="#fff" data-name="Page Left" transform="translate(582 -7)"/><rect id="Page_Right" width="750" height="3250" fill="#fff" data-name="Page Right" transform="translate(2699 743)"/><rect id="Bar_10" width="2324" height="222" fill="#424242" data-name="Bar 10" rx="111" transform="translate(873 3481)"/><rect id="Bar_09" width="2324" height="222" fill="#616161" data-name="Bar 09" rx="111" transform="translate(873 3017.01)"/><g id="Bar_08" fill="#212121" stroke="#707070" stroke-linejoin="round" stroke-width="1" data-name="Bar 08" transform="translate(2182 2545.491)"><rect width="1000" height="222" stroke="none" rx="111"/><rect width="999" height="221" x=".5" y=".5" fill="none" rx="110.5"/></g><g id="Bar_07" fill="#212121" stroke="#707070" stroke-linejoin="round" stroke-width="1" data-name="Bar 07" transform="translate(873 2545.491)"><rect width="1000" height="222" stroke="none" rx="111"/><rect width="999" height="221" x=".5" y=".5" fill="none" rx="110.5"/></g><rect id="Bar_06" width="2324" height="222" fill="#958c3b" data-name="Bar 06" rx="111" transform="translate(858 2073.972)"/><rect id="Bar_05" width="1579" height="222" fill="#424242" data-name="Bar 05" rx="111" transform="translate(1603 1602.452)"/><rect id="Bar_04" width="515" height="222" fill="#424242" data-name="Bar 04" rx="111" transform="translate(858 1602.452)"/><rect id="Bar_03" width="2324" height="222" fill="#424242" data-name="Bar 03" rx="111" transform="translate(873 1130.933)"/><rect id="Bar_02" width="997" height="222" fill="#958c3b" data-name="Bar 02" rx="111" transform="translate(2200 659.414)"/><rect id="Bar_01" width="660" height="222" fill="#424242" data-name="Bar 01" rx="111" transform="translate(2200 195)"/><g id="Picture" fill="#424242" stroke="#707070" stroke-linejoin="round" stroke-width="100" transform="translate(843 193)"><rect width="982" height="807" stroke="none" rx="100"/><rect width="882" height="707" x="50" y="50" fill="none" rx="50"/></g></g><g id="Fold" transform="translate(91 83)"><rect id="Shadow_Left" width="79" height="787" fill="#212121" data-name="Shadow Left" transform="translate(2651 -2)"/><rect id="Shadow_Bottom" width="776" height="78" fill="#212121" data-name="Shadow Bottom" transform="translate(2675 731)"/><rect id="Shadow_Right" width="1059" height="97" fill="#616161" data-name="Shadow Right" transform="translate(2730.067 -23.022) rotate(45)"/><path id="Fold-2" fill="url(#linear-gradient)" d="M533,0l533,527H0Z" data-name="Fold" transform="translate(3078.355 1129.421) rotate(-135)"/></g><g id="Icon" transform="translate(199.745 129.904)"><path id="Shadow" fill="#212121" d="M100,0H1760a80,80,0,0,1,80,80V1266a10,10,0,0,1-10,10H100A100,100,0,0,1,0,1176V100A100,100,0,0,1,100,0Z" transform="translate(79.255 292.096)"/><path id="Black" fill="#212121" d="M100,0H1760a80,80,0,0,1,80,80V1266a10,10,0,0,1-10,10H100A100,100,0,0,1,0,1176V100A100,100,0,0,1,100,0Z" transform="translate(115.255 250.096)"/><g filter="url(#Dark_Grey)" transform="matrix(1, 0, 0, 1, -199.75, -129.9)"><path id="Dark_Grey-2" fill="#424242" d="M100,0H1760a80,80,0,0,1,80,80v966a230,230,0,0,1-230,230H100A100,100,0,0,1,0,1176V100A100,100,0,0,1,100,0Z" data-name="Dark Grey" transform="translate(315 380)"/></g><g filter="url(#Mid_Grey)" transform="matrix(1, 0, 0, 1, -199.75, -129.9)"><path id="Mid_Grey-2" fill="#616161" d="M100,0H1760a80,80,0,0,1,80,80V846a430,430,0,0,1-430,430H100A100,100,0,0,1,0,1176V100A100,100,0,0,1,100,0Z" data-name="Mid Grey" transform="translate(315 380)"/></g><g filter="url(#Dark_Main_Color)" transform="matrix(1, 0, 0, 1, -199.75, -129.9)"><path id="Dark_Main_Color-2" fill="#a59f0c" d="M100,0H1760a80,80,0,0,1,80,80V596a680,680,0,0,1-680,680H100A100,100,0,0,1,0,1176V100A100,100,0,0,1,100,0Z" data-name="Dark Main Color" transform="translate(315 380)"/></g><g filter="url(#Main_Color)" transform="matrix(1, 0, 0, 1, -199.75, -129.9)"><path id="Main_Color-2" fill="#fff823" d="M100,0H1760a80,80,0,0,1,80,80V276c0,552.285-447.715,1000-1000,1000H100A100,100,0,0,1,0,1176V100A100,100,0,0,1,100,0Z" data-name="Main Color" transform="translate(315 380)"/></g><g filter="url(#Text)" transform="matrix(1, 0, 0, 1, -199.75, -129.9)"><text id="Text-2" fill="#212121" data-name="Text" font-family="Tahoma-Bold, Tahoma" font-size="700" font-weight="700" transform="translate(537 1237)"><tspan x="0" y="0">PDF</tspan></text></g></g></g></svg>