<svg xmlns="http://www.w3.org/2000/svg" xmlns:xlink="http://www.w3.org/1999/xlink" width="2401" height="2401" viewBox="0 0 2401 2401"><defs><filter id="Dark_Grey" width="1849.5" height="1285.5" x="299" y="541" filterUnits="userSpaceOnUse"><feOffset dx="5" dy="5" input="SourceAlpha"/><feGaussianBlur result="blur" stdDeviation="1.5"/><feFlood flood-opacity=".349"/><feComposite in2="blur" operator="in"/><feComposite in="SourceGraphic"/></filter><filter id="Mid_Grey" width="1849.5" height="1285.5" x="299" y="541" filterUnits="userSpaceOnUse"><feOffset dx="5" dy="5" input="SourceAlpha"/><feGaussianBlur result="blur-2" stdDeviation="1.5"/><feFlood flood-opacity=".349"/><feComposite in2="blur-2" operator="in"/><feComposite in="SourceGraphic"/></filter><filter id="Dark_Main_Color" width="1849.5" height="1285.5" x="299" y="541" filterUnits="userSpaceOnUse"><feOffset dx="5" dy="5" input="SourceAlpha"/><feGaussianBlur result="blur-3" stdDeviation="1.5"/><feFlood flood-opacity=".349"/><feComposite in2="blur-3" operator="in"/><feComposite in="SourceGraphic"/></filter><filter id="Main_Color" width="1849.5" height="1285.5" x="299" y="541" filterUnits="userSpaceOnUse"><feOffset dx="5" dy="5" input="SourceAlpha"/><feGaussianBlur result="blur-4" stdDeviation="1.5"/><feFlood flood-opacity=".349"/><feComposite in2="blur-4" operator="in"/><feComposite in="SourceGraphic"/></filter><filter id="Text" width="1449.5" height="1742.5" x="468.5" y="698" filterUnits="userSpaceOnUse"><feOffset dx="-30" dy="30" input="SourceAlpha"/><feGaussianBlur result="blur-5" stdDeviation="7.5"/><feFlood flood-opacity=".349"/><feComposite in2="blur-5" operator="in"/><feComposite in="SourceGraphic"/></filter><clipPath id="clip-SumatraPDF"><rect width="2401" height="2401"/></clipPath></defs><g id="SumatraPDF" clip-path="url(#clip-SumatraPDF)"><g id="Icon" transform="translate(183.745 290.905)"><path id="Shadow" fill="#212121" d="M100,0H1760a80,80,0,0,1,80,80V1266a10,10,0,0,1-10,10H100A100,100,0,0,1,0,1176V100A100,100,0,0,1,100,0Z" transform="translate(79.255 292.096)"/><path id="Black" fill="#212121" d="M100,0H1760a80,80,0,0,1,80,80V1266a10,10,0,0,1-10,10H100A100,100,0,0,1,0,1176V100A100,100,0,0,1,100,0Z" transform="translate(115.255 250.096)"/><g filter="url(#Dark_Grey)" transform="matrix(1, 0, 0, 1, -183.75, -290.9)"><path id="Dark_Grey-2" fill="#424242" d="M100,0H1760a80,80,0,0,1,80,80v966a230,230,0,0,1-230,230H100A100,100,0,0,1,0,1176V100A100,100,0,0,1,100,0Z" data-name="Dark Grey" transform="translate(299 541)"/></g><g filter="url(#Mid_Grey)" transform="matrix(1, 0, 0, 1, -183.75, -290.9)"><path id="Mid_Grey-2" fill="#616161" d="M100,0H1760a80,80,0,0,1,80,80V846a430,430,0,0,1-430,430H100A100,100,0,0,1,0,1176V100A100,100,0,0,1,100,0Z" data-name="Mid Grey" transform="translate(299 541)"/></g><g filter="url(#Dark_Main_Color)" transform="matrix(1, 0, 0, 1, -183.75, -290.9)"><path id="Dark_Main_Color-2" fill="#a59f0c" d="M100,0H1760a80,80,0,0,1,80,80V596c0,375.554-304.446,680-680,680H100A100,100,0,0,1,0,1176V100A100,100,0,0,1,100,0Z" data-name="Dark Main Color" transform="translate(299 541)"/></g><g filter="url(#Main_Color)" transform="matrix(1, 0, 0, 1, -183.75, -290.9)"><path id="Main_Color-2" fill="#fff823" d="M100,0H1760a80,80,0,0,1,80,80V276c0,552.285-447.715,1000-1000,1000H100A100,100,0,0,1,0,1176V100A100,100,0,0,1,100,0Z" data-name="Main Color" transform="translate(299 541)"/></g><g filter="url(#Text)" transform="matrix(1, 0, 0, 1, -183.75, -290.9)"><text id="Text-2" fill="#212121" data-name="Text" font-family="Tahoma-Bold, Tahoma" font-size="700" font-weight="700" transform="translate(521 1398)"><tspan x="0" y="0">PDF</tspan></text></g></g></g></svg>